<svg width="1695" height="1696" xmlns="http://www.w3.org/2000/svg" xmlns:xlink="http://www.w3.org/1999/xlink" xml:space="preserve" overflow="hidden"><defs><linearGradient x1="1355.5" y1="622.5" x2="3044.5" y2="2310.5" gradientUnits="userSpaceOnUse" spreadMethod="reflect" id="fill0"><stop offset="0" stop-color="#AC32E4" stop-opacity="1"/><stop offset="0.48" stop-color="#7918F2" stop-opacity="1"/><stop offset="1" stop-color="#4801FF" stop-opacity="1"/></linearGradient></defs><g transform="translate(-1352 -618)"><g><path d="M1356 748.734C1356 678.741 1412.74 622 1482.73 622L2917.27 622C2987.26 622 3044 678.741 3044 748.734L3044 2184.27C3044 2254.26 2987.26 2311 2917.27 2311L1482.73 2311C1412.74 2311 1356 2254.26 1356 2184.27Z" fill="url(#fill0)" fill-rule="evenodd"/><path d="M1815 1106.44C1888.86 1106.44 1948.74 1166.32 1948.74 1240.19 1948.74 1314.05 1888.86 1373.93 1815 1373.93 1741.14 1373.93 1681.26 1314.05 1681.26 1240.19 1681.26 1166.32 1741.14 1106.44 1815 1106.44ZM1815 1090.78C1732.48 1090.78 1665.59 1157.67 1665.59 1240.19 1665.59 1322.7 1732.48 1389.59 1815 1389.59 1897.52 1389.59 1964.41 1322.7 1964.41 1240.19 1964.41 1157.67 1897.52 1090.78 1815 1090.78ZM1815 1073C1906.13 1073 1980 1146.87 1980 1238 1980 1329.13 1906.13 1403 1815 1403 1723.87 1403 1650 1329.13 1650 1238 1650 1146.87 1723.87 1073 1815 1073Z" fill="#FFFFFF" fill-rule="evenodd" fill-opacity="1"/><path d="M2343.56 984.631C2343.56 992.953 2346.68 1001.28 2352.93 1007.52 2359.17 1013.76 2367.49 1016.88 2375.81 1016.88L2518.86 1016.36C2527.18 1016.36 2535.5 1013.24 2541.22 1007.52 2546.94 1001.8 2550.58 992.953 2550.58 984.631L2550.58 969.026 2343.56 969.026 2343.56 984.631Z" fill="#FFFFFF" fill-rule="evenodd" fill-opacity="1"/><path d="M2055.4 905.566C2055.4 901.405 2057.48 897.244 2060.08 894.643 2062.68 892.043 2066.84 889.962 2071 889.962L2328.48 889.442C2332.64 889.442 2336.8 891.522 2339.4 894.123 2342 896.724 2344.08 900.885 2344.08 905.046L2343.56 936.776 2550.58 936.776C2550.58 923.252 2550.58 910.768 2550.58 902.446 2551.11 882.159 2544.34 862.914 2530.82 848.349 2508.97 823.382 2480.88 806.737 2451.24 792.693 2423.67 781.77 2394.54 774.487 2365.41 769.286 2258.78 747.959 2149.55 745.879 2042.91 764.084 2024.71 766.685 2007.02 770.846 1989.34 776.048 1950.33 789.052 1913.39 807.257 1881.66 834.825 1860.34 853.031 1848.38 880.599 1849.42 908.688L1849.42 936.776 2055.92 937.296 2055.4 905.566Z" fill="#FFFFFF" fill-rule="evenodd" fill-opacity="1"/><path d="M1881.14 1016.36 2024.71 1016.36C2033.03 1016.36 2041.35 1013.24 2047.59 1007 2053.84 1000.76 2056.96 992.433 2056.96 984.11L2056.44 967.985 1849.42 967.985 1849.42 983.59C1849.42 991.913 1852.54 1000.24 1858.78 1006.48 1865.02 1012.72 1872.82 1016.36 1881.14 1016.36Z" fill="#FFFFFF" fill-rule="evenodd" fill-opacity="1"/><path d="M2585 1104.26C2658.86 1104.26 2718.74 1164.14 2718.74 1238 2718.74 1311.86 2658.86 1371.74 2585 1371.74 2511.14 1371.74 2451.26 1311.86 2451.26 1238 2451.26 1164.14 2511.14 1104.26 2585 1104.26ZM2585 1088.59C2502.48 1088.59 2435.59 1155.48 2435.59 1238 2435.59 1320.52 2502.48 1387.41 2585 1387.41 2667.52 1387.41 2734.41 1320.52 2734.41 1238 2734.41 1155.48 2667.52 1088.59 2585 1088.59ZM2585 1073C2676.13 1073 2750 1146.87 2750 1238 2750 1329.13 2676.13 1403 2585 1403 2493.87 1403 2420 1329.13 2420 1238 2420 1146.87 2493.87 1073 2585 1073Z" fill="#FFFFFF" fill-rule="evenodd" fill-opacity="1"/><path d="M2200 1881.26C2273.86 1881.26 2333.74 1941.14 2333.74 2015 2333.74 2088.86 2273.86 2148.74 2200 2148.74 2126.14 2148.74 2066.26 2088.86 2066.26 2015 2066.26 1941.14 2126.14 1881.26 2200 1881.26ZM2200 1865.59C2117.48 1865.59 2050.59 1932.48 2050.59 2015 2050.59 2097.52 2117.48 2164.41 2200 2164.41 2282.52 2164.41 2349.41 2097.52 2349.41 2015 2349.41 1932.48 2282.52 1865.59 2200 1865.59ZM2200 1850C2291.13 1850 2365 1923.87 2365 2015 2365 2106.13 2291.13 2180 2200 2180 2108.87 2180 2035 2106.13 2035 2015 2035 1923.87 2108.87 1850 2200 1850Z" fill="#FFFFFF" fill-rule="evenodd" fill-opacity="1"/><path d="M2408 1492.26C2481.86 1492.26 2541.74 1552.14 2541.74 1626 2541.74 1699.86 2481.86 1759.74 2408 1759.74 2334.14 1759.74 2274.26 1699.86 2274.26 1626 2274.26 1552.14 2334.14 1492.26 2408 1492.26ZM2408 1476.59C2325.48 1476.59 2258.59 1543.48 2258.59 1626 2258.59 1708.52 2325.48 1775.41 2408 1775.41 2490.52 1775.41 2557.41 1708.52 2557.41 1626 2557.41 1543.48 2490.52 1476.59 2408 1476.59ZM2408 1461C2499.13 1461 2573 1534.87 2573 1626 2573 1717.13 2499.13 1791 2408 1791 2316.87 1791 2243 1717.13 2243 1626 2243 1534.87 2316.87 1461 2408 1461Z" fill="#FFFFFF" fill-rule="evenodd" fill-opacity="1"/><path d="M1992.12 1492.26C2065.99 1492.26 2125.87 1552.14 2125.87 1626 2125.87 1699.86 2065.99 1759.74 1992.12 1759.74 1918.26 1759.74 1858.38 1699.86 1858.38 1626 1858.38 1552.14 1918.26 1492.26 1992.12 1492.26ZM1992.12 1476.59C1909.61 1476.59 1842.71 1543.48 1842.71 1626 1842.71 1708.52 1909.61 1775.41 1992.12 1775.41 2074.64 1775.41 2141.53 1708.52 2141.53 1626 2141.53 1543.48 2074.64 1476.59 1992.12 1476.59ZM1992 1461C2083.13 1461 2157 1534.87 2157 1626 2157 1717.13 2083.13 1791 1992 1791 1900.87 1791 1827 1717.13 1827 1626 1827 1534.87 1900.87 1461 1992 1461Z" fill="#FFFFFF" fill-rule="evenodd" fill-opacity="1"/><path d="M2200 1104.26C2273.86 1104.26 2333.74 1164.14 2333.74 1238 2333.74 1311.86 2273.86 1371.74 2200 1371.74 2126.14 1371.74 2066.26 1311.86 2066.26 1238 2066.26 1164.14 2126.14 1104.26 2200 1104.26ZM2200 1088.59C2117.48 1088.59 2050.59 1155.48 2050.59 1238 2050.59 1320.52 2117.48 1387.41 2200 1387.41 2282.52 1387.41 2349.41 1320.52 2349.41 1238 2349.41 1155.48 2282.52 1088.59 2200 1088.59ZM2200 1073C2291.13 1073 2365 1146.87 2365 1238 2365 1329.13 2291.13 1403 2200 1403 2108.87 1403 2035 1329.13 2035 1238 2035 1146.87 2108.87 1073 2200 1073Z" fill="#FFFFFF" fill-rule="evenodd" fill-opacity="1"/></g></g></svg>